<svg width="28" height="28" viewBox="0 0 28 28" fill="none" xmlns="http://www.w3.org/2000/svg">
<path id="Vector" d="M12.2719 27.3708C8.46562 23.8508 0 15.3193 0 10.5272C0 4.71313 6.26792 0 14 0C21.7292 0 28 4.71313 28 10.5272C28 15.3193 19.4688 23.8508 15.7281 27.3708C14.8313 28.2097 13.1687 28.2097 12.2719 27.3708ZM14 14.0363C16.574 14.0363 18.6667 12.4627 18.6667 10.5272C18.6667 8.59177 16.574 7.01816 14 7.01816C11.426 7.01816 9.33333 8.59177 9.33333 10.5272C9.33333 12.4627 11.426 14.0363 14 14.0363Z" fill="#E25F16"/>
</svg>
